HIERARCHY
ROOT Hips
{
	OFFSET 0.00 0.00 0.00
	CHANNELS 6 Xposition Yposition Zposition Xrotation Yrotation Zrotation
	JOINT Spine
	{
		OFFSET 0.00000 7.50895 0.00000
		CHANNELS 3 Xrotation Yrotation Zrotation
		JOINT Head
		{
			OFFSET 0.00000 13.86115 0.00000
			CHANNELS 3 Xrotation Yrotation Zrotation
			End Site
			{
				OFFSET 0.00000 4.52755 0.00000
			}
		}
		JOINT LeftShoulder
		{
			OFFSET 0.00000 8.20478 0.00000
			CHANNELS 3 Xrotation Yrotation Zrotation
			JOINT LeftArm
			{
				OFFSET 6.63596 0.00000 0.00000
				CHANNELS 3 Xrotation Yrotation Zrotation
				JOINT LeftForeArm
				{
					OFFSET 10.27422 0.00000 0.00000
					CHANNELS 3 Yrotation Zrotation Xrotation
					JOINT LeftHand
					{
						OFFSET 8.52215 0.00000 0.00000
						CHANNELS 3 Xrotation Yrotation Zrotation
						JOINT LeftHandThumb1
						{
							OFFSET 0.00000 0.00000 0.00000
							CHANNELS 3 Xrotation Zrotation Yrotation
							End Site
							{
								OFFSET 0.00000 0.00000 3.93700
							}
						}
						End Site
						{
							OFFSET 3.93700 0.00000 0.00000
						}
					}
				}
			}
		}
		JOINT RightShoulder
		{
			OFFSET 0.00000 8.20478 0.00000
			CHANNELS 3 Xrotation Yrotation Zrotation
			JOINT RightArm
			{
				OFFSET -6.63596 0.00000 0.00000
				CHANNELS 3 Xrotation Yrotation Zrotation
				JOINT RightForeArm
				{
					OFFSET -10.27422 0.00000 0.00000
					CHANNELS 3 Yrotation Zrotation Xrotation
					JOINT RightHand
					{
						OFFSET -8.52215 0.00000 0.00000
						CHANNELS 3 Xrotation Yrotation Zrotation
						JOINT RightHandThumb1
						{
							OFFSET 0.00000 0.00000 0.00000
							CHANNELS 3 Xrotation Zrotation Yrotation
							End Site
							{
								OFFSET 0.00000 0.00000 3.93700
							}
						}
						End Site
						{
							OFFSET -3.93700 0.00000 0.00000
						}
					}
				}
			}
		}
	}
	JOINT LeftUpLeg
	{
		OFFSET 3.00056 0.00000 0.00000
		CHANNELS 3 Xrotation Yrotation Zrotation
		JOINT LeftLeg
		{
			OFFSET 0.00000 -16.49085 0.00000
			CHANNELS 3 Xrotation Yrotation Zrotation
			JOINT LeftFoot
			{
				OFFSET 0.00000 -14.55658 0.00000
				CHANNELS 3 Xrotation Yrotation Zrotation
				JOINT LeftToeBase
				{
					OFFSET 0.00000 -1.25038 4.66650
					CHANNELS 3 Xrotation Yrotation Zrotation
					End Site
					{
						OFFSET 0.00000 0.00000 2.95275
					}
				}
			}
		}
	}
	JOINT RightUpLeg
	{
		OFFSET -3.00056 0.00000 0.00000
		CHANNELS 3 Xrotation Yrotation Zrotation
		JOINT RightLeg
		{
			OFFSET 0.00000 -16.49085 0.00000
			CHANNELS 3 Xrotation Yrotation Zrotation
			JOINT RightFoot
			{
				OFFSET 0.00000 -14.55658 0.00000
				CHANNELS 3 Xrotation Yrotation Zrotation
				JOINT RightToeBase
				{
					OFFSET 0.00000 -1.25038 4.66650
					CHANNELS 3 Xrotation Yrotation Zrotation
					End Site
					{
						OFFSET 0.00000 0.00000 2.95275
					}
				}
			}
		}
	}
}
MOTION
Frames: 17
Frame Time: 0.008333
 -9.1968 33.1233 -5.6327 9.2864 35.5468 11.9058 0.7272 -0.9816 -3.0421 -4.9388 11.7185 -0.8383 6.1022 1.7908 13.7345 -41.3414 0.9830 -73.7681 -65.3677 -0.0000 2.9155 -14.5495 21.3924 35.4336 33.1476 -0.0000 26.2537 -16.1783 -8.9430 -20.1434 18.9188 22.8023 69.4626 28.7676 0.0000 21.7732 0.7727 -3.9495 11.0786 32.8623 0.0000 -24.3270 -84.5184 11.9505 31.1183 84.5170 0.0000 -0.0000 41.3166 6.1516 -25.9727 7.6513 -0.0000 0.0000 -24.0786 -13.8553 -12.7438 23.0514 -0.0000 -0.0000 -19.4485 -25.1418 -19.9087 0.2583 0.0000 -0.0000
 -9.1937 33.1174 -5.6219 9.2924 35.5483 11.7936 0.6733 -0.9805 -2.9175 -4.9058 11.7337 -0.8452 6.1102 1.7828 13.7259 -41.3237 0.9532 -73.8641 -65.4408 -0.0000 3.0457 -14.5835 21.4185 35.4683 33.1476 -0.0000 26.2537 -16.1772 -8.9762 -20.1166 18.9222 22.7767 69.4445 28.6850 0.0000 21.8023 0.7801 -3.9557 11.1657 32.8623 0.0000 -24.3270 -84.6651 12.0500 31.1473 85.8627 -0.0000 -0.0000 41.2250 6.2528 -26.1435 7.7386 0.0000 -0.0000 -24.0175 -13.8324 -12.6187 23.0578 0.0000 -0.0000 -19.4681 -25.1893 -19.8580 0.2788 0.0000 0.0000
 -9.1914 33.1121 -5.6119 9.3123 35.5208 11.6855 0.6118 -0.9598 -2.8135 -4.8603 11.7633 -0.8439 6.1271 1.7745 13.7051 -41.2722 0.8628 -73.8985 -65.5736 -0.0000 3.0103 -14.6843 21.4522 35.6226 33.1476 -0.0000 26.2537 -16.1648 -8.9881 -20.0886 18.9080 22.7300 69.4567 28.6008 0.0000 21.8219 0.7830 -3.9837 11.1293 32.8623 0.0000 -24.3270 -84.7881 12.1532 31.2018 87.1038 0.0000 -0.0000 41.1231 6.3567 -26.2526 7.6807 -0.0000 0.0000 -23.9674 -13.8067 -12.4948 23.0452 0.0000 -0.0000 -19.4788 -25.1887 -19.8601 0.3879 0.0000 0.0000
 -9.1898 33.1073 -5.6023 9.3298 35.4899 11.5765 0.5647 -0.9413 -2.6949 -4.8393 11.8182 -0.8705 6.1325 1.8065 13.6865 -41.2421 0.7938 -73.9949 -65.6745 -0.0000 3.1348 -14.6639 21.5304 35.4894 33.1476 -0.0000 26.2537 -16.2077 -8.9481 -20.0837 18.9554 22.6787 69.4935 28.5202 0.0000 21.8200 0.7861 -4.0296 11.0484 32.8623 0.0000 -24.3270 -84.8890 12.2438 31.2710 88.2517 0.0000 -0.0000 41.0315 6.4599 -26.4715 7.7617 0.0000 -0.0000 -23.9182 -13.7907 -12.3698 23.0224 -0.0000 -0.0000 -19.4787 -25.1940 -19.8672 0.3593 0.0000 -0.0000
 -9.1885 33.1030 -5.5931 9.3570 35.4417 11.4623 0.5102 -0.8843 -2.5775 -4.8108 11.8608 -0.8929 6.1717 1.8263 13.6758 -41.2387 0.7476 -74.1003 -65.7836 -0.0000 3.2472 -14.6764 21.5926 35.4391 33.1476 -0.0000 26.2537 -16.2314 -8.9360 -20.0698 18.9885 22.6346 69.5151 28.4540 0.0000 21.7547 0.7936 -4.0720 11.0375 32.8623 0.0000 -24.3270 -84.9729 12.3195 31.3588 89.2982 0.0000 0.0000 41.0472 6.5500 -26.7747 7.7785 0.0000 -0.0000 -23.8754 -13.7754 -12.2397 23.0004 -0.0000 0.0000 -19.4800 -25.1966 -19.8842 0.3585 -0.0000 -0.0000
 -9.1863 33.0994 -5.5837 9.3604 35.4008 11.3767 0.4807 -0.8397 -2.4756 -4.7823 11.9018 -0.9336 6.1982 1.8442 13.6638 -41.2203 0.6578 -74.1866 -65.8985 -0.0000 3.3209 -14.7328 21.6489 35.4805 33.1476 -0.0000 26.2537 -16.2444 -8.9417 -20.0797 18.9664 22.6296 69.5679 28.3695 0.0000 21.6784 0.7923 -4.0608 11.0499 32.8623 0.0000 -24.3270 -85.0300 12.4264 31.4338 90.2783 0.0000 0.0000 40.8866 6.7269 -26.6437 8.0699 0.0000 0.0000 -23.8282 -13.7793 -12.1343 22.9949 -0.0000 0.0000 -19.4903 -25.1994 -19.8854 0.3840 -0.0000 0.0000
 -9.1848 33.0961 -5.5739 9.3614 35.3635 11.2928 0.4518 -0.8190 -2.3798 -4.7582 11.9473 -0.9547 6.2088 1.8764 13.6601 -41.1739 0.5404 -74.2608 -66.0115 -0.0000 3.3557 -14.7765 21.6514 35.5614 33.1476 -0.0000 26.2537 -16.2703 -8.9135 -20.0763 18.9459 22.5767 69.6484 28.2938 0.0000 21.6841 0.7974 -4.0988 11.0185 32.8623 0.0000 -24.3270 -85.0577 12.5173 31.5049 91.1451 0.0000 0.0000 40.8211 6.8814 -26.6522 8.2352 -0.0000 0.0000 -23.7775 -13.8034 -12.0305 22.9747 0.0000 -0.0000 -19.4911 -25.1849 -19.8961 0.3910 -0.0000 -0.0000
 -9.1811 33.0945 -5.5657 9.3616 35.3339 11.2351 0.4233 -0.8026 -2.3072 -4.7337 12.0028 -0.9851 6.2452 1.9222 13.6616 -41.1653 0.4439 -74.3397 -66.1001 -0.0000 3.3882 -14.7648 21.6698 35.5169 33.1476 -0.0000 26.2537 -16.3043 -8.8857 -20.0813 18.9440 22.5611 69.7160 28.2276 0.0000 21.7138 0.7976 -4.1062 11.0021 32.8623 0.0000 -24.3270 -85.0124 12.5583 31.5417 91.9438 -0.0000 0.0000 40.6711 6.8171 -26.7998 8.3575 0.0000 0.0000 -23.7311 -13.8402 -11.9619 22.9372 0.0000 -0.0000 -19.4840 -25.1502 -19.8844 0.3932 0.0000 0.0000
 -9.1784 33.0936 -5.5573 9.3545 35.3107 11.1919 0.4052 -0.7920 -2.2619 -4.7264 12.0266 -0.9798 6.2509 1.9587 13.6786 -41.1255 0.3088 -74.4043 -66.1770 -0.0000 3.3974 -14.7660 21.7119 35.4693 33.1476 -0.0000 26.2537 -16.3251 -8.8723 -20.0704 18.9094 22.5107 69.8009 28.1761 0.0000 21.7688 0.7807 -4.0133 11.0175 32.8623 0.0000 -24.3270 -84.9745 12.6285 31.5766 92.6257 0.0000 -0.0000 40.6729 6.8479 -26.6902 8.0184 -0.0000 -0.0000 -23.6817 -13.8712 -11.9045 22.9043 -0.0000 -0.0000 -19.4785 -25.1222 -19.9151 0.4047 0.0000 -0.0000
 -9.1755 33.0939 -5.5488 9.3494 35.3044 11.1525 0.3753 -0.7976 -2.2205 -4.7067 12.0350 -0.9887 6.3012 2.0172 13.6733 -41.1490 0.0738 -74.4514 -66.2008 -0.0000 3.6160 -15.0082 21.7839 35.8459 33.1476 -0.0000 26.2537 -16.3456 -8.8525 -20.0676 18.8641 22.4631 69.8947 28.1094 0.0000 21.7935 0.7725 -3.9525 11.0676 32.8623 0.0000 -24.3270 -84.9067 12.6775 31.5860 93.2329 -0.0000 0.0000 40.5773 6.8927 -26.7028 8.2603 0.0000 0.0000 -23.6321 -13.9172 -11.8590 22.8573 0.0000 0.0000 -19.4594 -25.0876 -19.9072 0.3471 -0.0000 0.0000
 -9.1732 33.0940 -5.5411 9.3387 35.3116 11.1188 0.3543 -0.8130 -2.1873 -4.6933 12.0295 -0.9890 6.3279 2.0665 13.6877 -41.1658 -0.0945 -74.5121 -66.2133 -0.0000 3.6463 -15.0691 21.8013 35.9407 33.1476 -0.0000 26.2537 -16.3316 -8.8822 -20.0565 18.7749 22.4732 69.9693 28.0734 0.0000 21.7967 0.7815 -4.0102 11.0373 32.8623 0.0000 -24.3270 -84.8245 12.7036 31.5685 93.7481 0.0000 -0.0000 40.6733 7.0282 -27.0100 8.0537 0.0000 0.0000 -23.5876 -13.9883 -11.8217 22.8128 -0.0000 0.0000 -19.4641 -25.0487 -19.9579 0.3752 0.0000 0.0000
 -9.1712 33.0953 -5.5338 9.3357 35.3213 11.0955 0.3302 -0.8361 -2.1662 -4.6924 12.0312 -1.0131 6.3293 2.1012 13.6861 -41.1551 -0.2316 -74.5388 -66.2300 -0.0000 3.6287 -15.0750 21.7979 35.9558 33.1476 -0.0000 26.2537 -16.3464 -8.8778 -20.0719 18.7147 22.4620 70.0896 28.0692 0.0000 21.8336 0.7921 -4.0648 11.0371 32.8623 0.0000 -24.3270 -84.7042 12.7094 31.5327 94.1890 -0.0000 -0.0000 40.6325 7.0353 -27.0255 7.9465 -0.0000 -0.0000 -23.5508 -14.0434 -11.7993 22.7684 0.0000 -0.0000 -19.4379 -25.0134 -19.9477 0.3458 -0.0000 -0.0000
 -9.1700 33.0967 -5.5261 9.3349 35.3331 11.0740 0.2931 -0.8502 -2.1532 -4.6594 12.0186 -1.0411 6.3114 2.0939 13.7022 -41.1005 -0.3403 -74.5538 -66.2377 -0.0000 3.6541 -15.0332 21.8056 35.8674 33.1476 -0.0000 26.2537 -16.3328 -8.8689 -20.0828 18.6541 22.4824 70.2169 28.0446 0.0000 21.7082 0.7594 -3.9142 10.9889 32.8623 0.0000 -24.3270 -84.5786 12.6856 31.4908 94.5630 -0.0000 0.0000 40.5945 6.9501 -26.8977 8.1133 0.0000 0.0000 -23.5108 -14.0696 -11.7764 22.7154 -0.0000 0.0000 -19.4417 -24.9385 -20.0923 0.4930 0.0000 0.0000
 -9.1686 33.0976 -5.5184 9.3255 35.3297 11.0581 0.2835 -0.8608 -2.1382 -4.6720 12.0084 -1.0799 6.3020 2.1113 13.7129 -41.0851 -0.4352 -74.5717 -66.2331 -0.0000 3.6913 -15.0366 21.8362 35.8377 33.1476 -0.0000 26.2537 -16.3632 -8.8369 -20.1034 18.6069 22.4675 70.3500 28.0348 0.0000 21.7740 0.7657 -3.9762 10.9096 32.8623 0.0000 -24.3270 -84.4152 12.6116 31.4480 94.8847 0.0000 0.0000 40.5437 6.8613 -26.7475 8.3420 -0.0000 -0.0000 -23.4641 -14.0979 -11.7479 22.6715 0.0000 -0.0000 -19.4356 -24.9147 -20.1322 0.5232 -0.0000 0.0000
 -9.1661 33.0993 -5.5106 9.3137 35.3353 11.0608 0.2723 -0.8542 -2.1492 -4.6735 11.9907 -1.0976 6.2784 2.0824 13.7353 -41.0487 -0.4952 -74.5784 -66.2266 -0.0000 3.7024 -15.0635 21.8780 35.8391 33.1476 -0.0000 26.2537 -16.4231 -8.7991 -20.1138 18.6507 22.4359 70.4539 28.0895 0.0000 21.7825 0.7672 -4.0029 10.8593 32.8623 0.0000 -24.3270 -84.2300 12.5289 31.3852 95.1408 0.0000 0.0000 40.5389 6.7888 -26.7909 8.1306 -0.0000 0.0000 -23.4061 -14.0783 -11.7297 22.6260 0.0000 -0.0000 -19.4403 -24.9496 -20.1214 0.4785 0.0000 0.0000
 -9.1648 33.1002 -5.5016 9.2881 35.3332 11.0528 0.2813 -0.8621 -2.1381 -4.7077 11.9623 -1.1070 6.2380 2.0649 13.7494 -41.0101 -0.5346 -74.5865 -66.2205 -0.0000 3.7227 -15.1244 21.9078 35.9188 33.1476 -0.0000 26.2537 -16.4133 -8.8049 -20.1086 18.6071 22.4962 70.5338 28.1600 0.0000 21.6909 0.7605 -3.9947 10.7875 32.8623 0.0000 -24.3270 -84.0177 12.3950 31.3272 95.3581 -0.0000 -0.0000 40.4575 6.6784 -26.6968 8.2577 0.0000 0.0000 -23.3251 -14.0609 -11.6853 22.5719 -0.0000 0.0000 -19.3917 -24.9801 -19.9801 0.3160 -0.0000 -0.0000
 -9.1632 33.1012 -5.4933 9.2781 35.3237 11.0457 0.2733 -0.8481 -2.1441 -4.7139 11.9350 -1.1134 6.2191 2.0391 13.7916 -40.9737 -0.5625 -74.6070 -66.2098 -0.0000 3.7321 -15.1796 21.9150 36.0145 33.1476 -0.0000 26.2537 -16.4201 -8.8030 -20.0913 18.6190 22.4834 70.5998 28.3094 0.0000 21.7738 0.7621 -4.0248 10.7318 32.8623 0.0000 -24.3270 -83.8128 12.2549 31.2738 95.5299 0.0000 -0.0000 40.4159 6.6054 -26.6349 8.3071 -0.0000 0.0000 -23.2680 -14.0602 -11.6560 22.5163 -0.0000 0.0000 -19.3622 -24.9707 -19.9711 0.2638 -0.0000 0.0000
